HIERARCHY
ROOT Hips
{
	OFFSET 0.000000 0.000000 0.000000
	CHANNELS 6 Xposition Yposition Zposition Zrotation Yrotation Xrotation 
	JOINT LeftUpLeg_virtual
	{
		OFFSET 0.000000 0.000000 0.000000
		CHANNELS 3 Zrotation Yrotation Xrotation
		JOINT LeftUpLeg
		{
			OFFSET 8.479694 -4.795517 -0.379053
			CHANNELS 3 Zrotation Yrotation Xrotation
			JOINT LeftLeg
			{
				OFFSET 0.485052 -32.551468 0.112863
				CHANNELS 3 Zrotation Yrotation Xrotation
				JOINT LeftFoot
				{
					OFFSET 0.438033 -32.635670 -3.012641
					CHANNELS 3 Zrotation Yrotation Xrotation
					JOINT LeftToeBase
					{
						OFFSET 0.970169 -13.225353 11.864223
						CHANNELS 3 Zrotation Yrotation Xrotation
						End Site
						{
							OFFSET 0.000000 0.000000 0.000000
						}
					}
				}
			}
		}
	}
	JOINT RightUpLeg_virtual
	{
		OFFSET 0.000000 0.000000 0.000000
		CHANNELS 3 Zrotation Yrotation Xrotation
		JOINT RightUpLeg
		{
			OFFSET -8.479694 -4.795517 -0.379053
			CHANNELS 3 Zrotation Yrotation Xrotation
			JOINT RightLeg
			{
				OFFSET -0.484100 -32.551483 0.112903
				CHANNELS 3 Zrotation Yrotation Xrotation
				JOINT RightFoot
				{
					OFFSET -0.438985 -32.635651 -3.012681
					CHANNELS 3 Zrotation Yrotation Xrotation
					JOINT RightToeBase
					{
						OFFSET -0.970169 -13.225354 11.864223
						CHANNELS 3 Zrotation Yrotation Xrotation
						End Site
						{
							OFFSET 0.000000 0.000000 0.000000
						}
					}
				}
			}
		}
	}
	JOINT Spine_virtual
	{
		OFFSET 0.000000 0.000000 0.000000
		CHANNELS 3 Zrotation Yrotation Xrotation
		JOINT Spine
		{
			OFFSET 0.000000 7.722015 1.166203
			CHANNELS 3 Zrotation Yrotation Xrotation
			JOINT Spine1
			{
				OFFSET 0.000000 12.024086 0.248766
				CHANNELS 3 Zrotation Yrotation Xrotation
				JOINT Spine2
				{
					OFFSET -0.000000 11.503036 -0.491240
					CHANNELS 3 Zrotation Yrotation Xrotation
					JOINT Neck_virtual
					{
						OFFSET 0.000000 0.000000 0.000000
						CHANNELS 3 Zrotation Yrotation Xrotation
						JOINT Neck
						{
							OFFSET 0.000000 18.430687 -3.123054
							CHANNELS 3 Zrotation Yrotation Xrotation
							JOINT Head
							{
								OFFSET -0.000000 9.051071 1.034021
								CHANNELS 3 Zrotation Yrotation Xrotation
								End Site
								{
									OFFSET 0.000000 0.000000 0.000000
								}
							}
						}
					}
					JOINT LeftShoulder_virtual
					{
						OFFSET 0.000000 0.000000 0.000000
						CHANNELS 3 Zrotation Yrotation Xrotation
						JOINT LeftShoulder
						{
							OFFSET 6.197824 13.665230 -4.064723
							CHANNELS 3 Zrotation Yrotation Xrotation
							JOINT LeftArm
							{
								OFFSET 7.778132 -0.187073 -1.709282
								CHANNELS 3 Zrotation Yrotation Xrotation
								JOINT LeftForeArm
								{
									OFFSET 21.954697 0.000000 -2.041093
									CHANNELS 3 Zrotation Yrotation Xrotation
									JOINT LeftHand
									{
										OFFSET 22.992908 0.000000 -0.870901
										CHANNELS 3 Zrotation Yrotation Xrotation
										End Site
										{
											OFFSET 0.000000 0.000000 0.000000
										}
									}
								}
							}
						}
					}
					JOINT RightShoulder_virtual
					{
						OFFSET 0.000000 0.000000 0.000000
						CHANNELS 3 Zrotation Yrotation Xrotation
						JOINT RightShoulder
						{
							OFFSET -6.197824 13.665230 -4.064723
							CHANNELS 3 Zrotation Yrotation Xrotation
							JOINT RightArm
							{
								OFFSET -7.778132 -0.187073 -1.709282
								CHANNELS 3 Zrotation Yrotation Xrotation
								JOINT RightForeArm
								{
									OFFSET -21.954697 0.000000 -2.041093
									CHANNELS 3 Zrotation Yrotation Xrotation
									JOINT RightHand
									{
										OFFSET -22.992908 0.000000 -0.870901
										CHANNELS 3 Zrotation Yrotation Xrotation
										End Site
										{
											OFFSET 0.000000 0.000000 0.000000
										}
									}
								}
							}
						}
					}
				}
			}
		}
	}
}
MOTION
Frames: 8
Frame Time: 0.033333
0.605407 81.431839 17.786259 179.737794 3.356707 -179.556944 -3.383979 -1.752126 11.362255 -0.444356 0.865871 -23.928941 7.725800 1.042809 29.894703 -0.659813 -8.323328 -9.296208 0.000000 0.000000 0.000000 -0.170197 -1.810705 9.625821 -2.967305 -0.733949 -22.939487 -0.349045 4.153459 30.240403 8.556932 4.247420 -10.368801 0.000000 0.000000 0.000000 2.817322 1.421142 -1.124726 -6.040632 2.436330 1.198979 0.337483 -1.737060 4.190704 0.025765 0.223507 0.096024 0.086729 -0.654277 5.027319 1.239770 -1.643398 -6.044455 0.000000 0.000000 0.000000 1.219047 0.050982 2.142364 11.868364 0.965277 -3.138584 -16.077569 3.123542 -42.491867 2.425778 -31.715376 -6.417347 0.000000 0.000000 0.000000 -2.200708 1.209435 1.734591 1.900350 -14.505133 -2.876274 12.136768 -8.678636 -51.830484 1.028421 30.177900 -4.261777 0.000000 0.000000 0.000000 
0.610869 81.433624 17.784872 179.548639 3.188164 -179.252222 -3.152440 -1.608408 11.705921 -0.181206 0.858210 -23.541190 7.846779 0.447372 30.147106 -0.665494 -8.264976 -8.761735 0.000000 0.000000 0.000000 -0.243004 -2.253532 9.326258 -2.792647 -1.618772 -23.235634 -0.425210 3.519970 30.762858 8.207186 3.863392 -10.402585 0.000000 0.000000 0.000000 2.695463 1.329911 -1.308767 -6.137526 2.342246 1.080226 0.314371 -1.804727 4.103953 0.086523 0.134816 0.032483 -0.064594 -0.807780 5.001068 1.160102 -1.569957 -6.113081 0.000000 0.000000 0.000000 1.197819 0.070480 2.162658 11.883926 1.012360 -3.383444 -16.040568 3.186244 -42.503130 2.535722 -31.684851 -6.519280 0.000000 0.000000 0.000000 -2.245724 1.290976 1.836142 1.949135 -14.434097 -2.903194 12.167017 -8.629158 -52.009152 1.104835 30.194272 -4.198834 0.000000 0.000000 0.000000 
0.618492 81.431145 17.781408 179.537342 3.411143 -179.251252 -3.158990 -1.589231 11.709849 -0.187157 0.880728 -23.533567 7.856959 0.464958 30.163085 -0.669353 -8.262807 -8.751961 0.000000 0.000000 0.000000 -0.241257 -2.201927 9.278008 -2.807725 -1.512980 -23.250317 -0.413509 3.554883 30.808921 8.219027 3.883836 -10.364025 0.000000 0.000000 0.000000 2.659968 1.627279 -1.325218 -6.164183 2.526860 1.083829 0.314088 -1.725754 4.119289 0.088206 0.065914 0.064866 0.073895 -0.625846 5.005278 1.264668 -1.640766 -6.112108 0.000000 0.000000 0.000000 1.201256 0.032685 2.232089 11.837675 0.929293 -3.324732 -16.153505 3.020595 -42.433783 2.496409 -31.841174 -6.478913 0.000000 0.000000 0.000000 -2.208636 1.170124 1.794376 1.963840 -14.526306 -2.865211 12.182891 -8.685019 -51.835159 1.083829 30.180362 -4.166765 0.000000 0.000000 0.000000 
0.621246 81.427269 17.777657 179.552778 3.097042 -179.217689 -3.148445 -1.596083 11.683611 -0.182112 0.881853 -23.556460 7.859440 0.406891 30.139999 -0.683985 -8.274241 -8.752074 0.000000 0.000000 0.000000 -0.255010 -2.244283 9.297053 -2.777402 -1.611583 -23.197231 -0.420722 3.469822 30.749515 8.174181 3.846095 -10.439721 0.000000 0.000000 0.000000 2.666404 1.310365 -1.442417 -6.161670 2.323406 1.089344 0.285928 -1.785858 4.127707 0.029725 0.140258 0.111274 0.076844 -0.652960 5.148950 1.211988 -1.675624 -6.042733 0.000000 0.000000 0.000000 1.284185 0.051487 2.098023 11.800788 0.903097 -3.245889 -16.225138 3.092346 -42.248746 2.554702 -31.795521 -6.607744 0.000000 0.000000 0.000000 -2.167991 1.272988 1.768199 2.040036 -14.430079 -2.868837 12.135137 -8.618043 -51.865994 1.123389 30.279154 -4.153672 0.000000 0.000000 0.000000 
0.619611 81.423462 17.776264 179.545128 3.175170 -179.234150 -3.153567 -1.602623 11.692917 -0.198541 0.887914 -23.550477 7.873518 0.402700 30.156231 -0.695819 -8.281726 -8.734528 0.000000 0.000000 0.000000 -0.244449 -2.278318 9.267255 -2.797724 -1.537234 -23.199583 -0.422782 3.481455 30.794492 8.182528 3.855856 -10.441001 0.000000 0.000000 0.000000 2.645552 1.331851 -1.429607 -6.182023 2.354614 1.081760 0.315592 -1.773373 4.106042 0.107111 0.154494 0.045904 0.010357 -0.685495 5.040490 1.188290 -1.601002 -6.078621 0.000000 0.000000 0.000000 1.207636 0.060809 2.200302 11.692082 0.941746 -3.337599 -16.306201 3.140599 -42.260983 2.507345 -31.679934 -6.510995 0.000000 0.000000 0.000000 -2.247778 1.299850 1.812078 1.979401 -14.450133 -2.863121 12.161571 -8.642339 -51.621415 1.089395 30.499113 -4.141418 0.000000 0.000000 0.000000 
0.614016 81.421844 17.777603 179.560100 3.292628 -179.212662 -3.140815 -1.608362 11.697001 -0.219469 0.915885 -23.564091 7.891830 0.397371 30.154285 -0.691403 -8.276709 -8.720322 0.000000 0.000000 0.000000 -0.233804 -2.219700 9.248960 -2.822386 -1.449889 -23.207284 -0.419978 3.490381 30.794557 8.178772 3.846823 -10.409010 0.000000 0.000000 0.000000 2.666072 1.400767 -1.479030 -6.212422 2.411512 1.110933 0.273580 -1.722043 4.139009 0.025067 0.212389 0.079025 0.060439 -0.621604 5.147173 1.196426 -1.662152 -6.038857 0.000000 0.000000 0.000000 1.273022 0.133809 2.151064 11.720687 0.848971 -3.032032 -16.399887 2.972366 -42.216713 2.500725 -31.883432 -6.486193 0.000000 0.000000 0.000000 -2.175505 1.288961 1.790410 2.066927 -14.433650 -2.811906 12.169205 -8.650149 -51.709672 1.141013 30.329810 -4.075254 0.000000 0.000000 0.000000 
0.604215 81.420624 17.788136 179.547368 3.194632 -179.225448 -3.142446 -1.632344 11.713518 -0.257644 0.910816 -23.588675 7.901939 0.366257 30.152505 -0.692017 -8.284534 -8.696042 0.000000 0.000000 0.000000 -0.211771 -2.278387 9.267400 -2.850017 -1.474115 -23.204721 -0.441791 3.458993 30.785705 8.191547 3.856730 -10.429234 0.000000 0.000000 0.000000 2.653515 1.391391 -1.425513 -6.244092 2.419909 1.114443 0.287975 -1.746924 4.114701 0.072820 0.166446 0.091460 0.077929 -0.571234 4.980663 1.235898 -1.647799 -6.082382 0.000000 0.000000 0.000000 1.244162 0.038339 2.100819 11.720688 0.913394 -3.351917 -16.463843 3.116309 -42.194101 2.521219 -31.942496 -6.447587 0.000000 0.000000 0.000000 -2.199002 1.221751 1.839354 2.082449 -14.463924 -2.804858 12.151636 -8.565803 -51.699126 1.051369 30.317256 -4.071238 0.000000 0.000000 0.000000 
0.587963 81.422913 17.803732 179.556111 3.038672 -179.209725 -3.125158 -1.663584 11.725988 -0.291364 0.898191 -23.645401 7.914810 0.323159 30.148571 -0.678024 -8.286240 -8.675905 0.000000 0.000000 0.000000 -0.200777 -2.331561 9.285112 -2.873761 -1.481429 -23.231517 -0.447144 3.432040 30.776894 8.172594 3.827816 -10.445417 0.000000 0.000000 0.000000 2.673100 1.281946 -1.436482 -6.263391 2.356389 1.111573 0.275449 -1.762554 4.110152 0.037681 0.135801 0.111937 -0.017510 -0.734516 5.088222 1.131041 -1.629063 -6.020372 0.000000 0.000000 0.000000 1.227261 0.103543 2.117526 11.719309 0.965133 -3.484121 -16.438978 3.057636 -42.222433 2.417225 -31.912788 -6.353111 0.000000 0.000000 0.000000 -2.191335 1.260922 1.820712 2.087982 -14.391038 -2.803000 12.193109 -8.536592 -51.774746 1.087160 30.409197 -4.060480 0.000000 0.000000 0.000000 
